# xmcd CD database file
# Copyright (C) 1997 Ti Kan
# 
# Track frame offsets:
#     150
#     10590
#     25305
#     35402
#     48362
#     59645
#     72857
#     83487
#     93070
#     103057
#     113162
#     122770
#     135160
#     148327
#     162745
#     179640
#     187972
# 
# Disc length: 2629 seconds
# 
# Revision: 1
# Processed by: cddbd v1.4b41PL1 Copyright (c) Steve Scherf et al.
# Submitted via: DiscPlay 4.0.4
# 
DISCID=e50a4311
DTITLE=Roy Orbison - Roy Orbison Country
DYEAR=1900
DGENRE=
TTITLE0=Lonesome Number One
TTITLE1=Oh Such a Stranger
TTITLE2=(I'd Be) a Legend in My Time
TTITLE3=I'm a Southern Man
TTITLE4=Belinda
TTITLE5=Under Suspician
TTITLE6=No Chaint At All
TTITLE7=Can't Way
TTITLE8=I'm Hurting
TTITLE9=The Same Street
TTITLE10=Blue Blue Day
TTITLE11=Too Soon To Know
TTITLE12=I Don't Really Want You
TTITLE13=Old Love Song
TTITLE14=Born To Love You
TTITLE15=Big Hearted Me
TTITLE16=What About Me
EXTD=
EXTT0=
EXTT1=
EXTT2=
EXTT3=
EXTT4=
EXTT5=
EXTT6=
EXTT7=
EXTT8=
EXTT9=
EXTT10=
EXTT11=
EXTT12=
EXTT13=
EXTT14=
EXTT15=
EXTT16=
PLAYORDER=
